<?xml version="1.0" ?><svg id="Flat" viewBox="0 0 64 64" xmlns="http://www.w3.org/2000/svg"><defs><style>.cls-1{fill:#212529;}.cls-2{fill:#ffd100;}.cls-3{fill:#fff;}.cls-4{fill:#343a40;}</style></defs><g id="Color"><path class="cls-1" d="M35.877,14.151,13.9,45.551a8,8,0,1,0,4.845,9.417L38.177,27.225A9.383,9.383,0,0,0,35.877,14.151ZM11,57a4,4,0,1,1,4-4A4,4,0,0,1,11,57Z"/><path class="cls-2" d="M61,11V5a2,2,0,0,0-2-2H5A2,2,0,0,0,3,5v6A7.5,7.5,0,0,1,3,26v5a3,3,0,0,0,3,3H58a3,3,0,0,0,3-3V26a7.5,7.5,0,0,1,0-15Z"/><circle class="cls-3" cx="35" cy="13" r="3"/><circle class="cls-3" cx="47" cy="25" r="3"/><path class="cls-3" d="M33.5,26.5a2.109,2.109,0,0,1,.009-2.991L45.586,11.586a2,2,0,1,1,2.828,2.828L36.491,26.491A2.109,2.109,0,0,1,33.5,26.5Z"/><path class="cls-3" d="M24,7a1,1,0,0,0,1-1V3H23V6A1,1,0,0,0,24,7Z"/><path class="cls-3" d="M24,27a1,1,0,0,0,1-1V21a1,1,0,0,0-2,0v5A1,1,0,0,0,24,27Z"/><path class="cls-3" d="M24,17a1,1,0,0,0,1-1V11a1,1,0,0,0-2,0v5A1,1,0,0,0,24,17Z"/><path class="cls-3" d="M24,30a1,1,0,0,0-1,1v3h2V31A1,1,0,0,0,24,30Z"/><path class="cls-4" d="M37,45a7.967,7.967,0,0,0-3.146.645L11.812,14.151a9.382,9.382,0,0,0-2.3,13.074L29.5,55.757A8,8,0,1,0,37,45Zm0,12a4,4,0,1,1,4-4A4,4,0,0,1,37,57Z"/><circle class="cls-2" cx="23.861" cy="39.37" r="1"/></g></svg>